<?plantuml 1.2026.2?><svg xmlns="http://www.w3.org/2000/svg" xmlns:xlink="http://www.w3.org/1999/xlink" contentStyleType="text/css" data-diagram-type="ACTIVITY" height="1157px" preserveAspectRatio="none" style="width:560px;height:1157px;background:#FFFFFF;" version="1.1" viewBox="0 0 560 1157" width="560px" zoomAndPan="magnify"><title>Listening</title><defs/><g><rect fill="#FFFFCC" height="28.0566" rx="2.5" ry="2.5" style="stroke:#FFDD88;stroke-width:3;" width="549.0869" x="5" y="5"/><text fill="#000000" font-family="monospace" font-size="10" lengthAdjust="spacing" textLength="534.0869" x="10" y="20">This&#160;syntax&#160;is&#160;deprecated,&#160;you&#160;must&#160;add&#160;&lt;&lt;#EEEEEE&gt;&gt;&#160;at&#160;the&#160;end&#160;of&#160;the&#160;line,&#160;after&#160;the&#160;';'</text><g class="title" data-source-line="3"><text fill="#000000" font-family="sans-serif" font-size="14" font-weight="bold" lengthAdjust="spacing" textLength="62.2207" x="217.5469" y="72.5898">Listening</text></g><ellipse cx="193.6353" cy="96.666" fill="#222222" rx="10" ry="10" style="stroke:#222222;stroke-width:1;"/><rect fill="#F1F1F1" height="35.0938" rx="12.5" ry="12.5" style="stroke:#181818;stroke-width:0.5;" width="39.3477" x="173.9614" y="126.666"/><text fill="#000000" font-family="sans-serif" font-size="12" lengthAdjust="spacing" textLength="19.3477" x="183.9614" y="149.123">Idle</text><rect fill="#F1F1F1" height="35.0938" rx="12.5" ry="12.5" style="stroke:#181818;stroke-width:0.5;" width="92.7031" x="147.2837" y="181.7598"/><text fill="#000000" font-family="sans-serif" font-size="12" lengthAdjust="spacing" textLength="72.7031" x="157.2837" y="204.2168">Start listening</text><polygon fill="#F1F1F1" points="122.0923,280.8535,265.1782,280.8535,277.1782,292.8535,265.1782,304.8535,122.0923,304.8535,110.0923,292.8535,122.0923,280.8535" style="stroke:#181818;stroke-width:0.5;"/><text fill="#000000" font-family="sans-serif" font-size="11" lengthAdjust="spacing" textLength="143.0859" x="122.0923" y="297.3545">Lung mode or Raw selected?</text><text fill="#000000" font-family="sans-serif" font-size="11" lengthAdjust="spacing" textLength="17.1177" x="92.9746" y="290.4365">yes</text><text fill="#000000" font-family="sans-serif" font-size="11" lengthAdjust="spacing" textLength="12.2354" x="277.1782" y="290.4365">no</text><rect fill="#F1F1F1" height="35.0938" rx="12.5" ry="12.5" style="stroke:#181818;stroke-width:0.5;" width="85.3555" x="57.4146" y="314.8535"/><text fill="#000000" font-family="sans-serif" font-size="12" lengthAdjust="spacing" textLength="65.3555" x="67.4146" y="337.3105">Bypass filter</text><rect fill="#F1F1F1" height="35.0938" rx="12.5" ry="12.5" style="stroke:#181818;stroke-width:0.5;" width="124.0508" x="225.1528" y="314.8535"/><text fill="#000000" font-family="sans-serif" font-size="12" lengthAdjust="spacing" textLength="104.0508" x="235.1528" y="337.3105">Apply selected filter</text><polygon fill="#F1F1F1" points="193.6353,355.9473,205.6353,367.9473,193.6353,379.9473,181.6353,367.9473,193.6353,355.9473" style="stroke:#181818;stroke-width:0.5;"/><rect fill="#F1F1F1" height="35.0938" rx="12.5" ry="12.5" style="stroke:#181818;stroke-width:0.5;" width="92.0352" x="147.6177" y="399.9473"/><text fill="#000000" font-family="sans-serif" font-size="12" lengthAdjust="spacing" textLength="72.0352" x="157.6177" y="422.4043">Apply volume</text><rect fill="#F1F1F1" height="35.0938" rx="12.5" ry="12.5" style="stroke:#181818;stroke-width:0.5;" width="76.0391" x="155.6157" y="455.041"/><text fill="#000000" font-family="sans-serif" font-size="12" lengthAdjust="spacing" textLength="56.0391" x="165.6157" y="477.498">Play audio</text><rect fill="#F1F1F1" height="35.0938" rx="12.5" ry="12.5" style="stroke:#181818;stroke-width:0.5;" width="153.7344" x="116.7681" y="559.0527"/><text fill="#000000" font-family="sans-serif" font-size="12" lengthAdjust="spacing" textLength="133.7344" x="126.7681" y="581.5098">Record + listen (optional)</text><polygon fill="#F1F1F1" points="100.6885,614.1465,286.582,614.1465,298.582,626.1465,286.582,638.1465,100.6885,638.1465,88.6885,626.1465,100.6885,614.1465" style="stroke:#181818;stroke-width:0.5;"/><text fill="#000000" font-family="sans-serif" font-size="11" lengthAdjust="spacing" textLength="185.8936" x="100.6885" y="630.6475">Cancelled / source or mode changed?</text><text fill="#000000" font-family="sans-serif" font-size="11" lengthAdjust="spacing" textLength="17.1177" x="71.5708" y="623.7295">yes</text><text fill="#000000" font-family="sans-serif" font-size="11" lengthAdjust="spacing" textLength="33.623" x="298.582" y="623.7295">clip full</text><rect fill="#F1F1F1" height="35.0938" rx="12.5" ry="12.5" style="stroke:#181818;stroke-width:0.5;" width="135.377" x="11" y="648.1465"/><text fill="#000000" font-family="sans-serif" font-size="12" lengthAdjust="spacing" textLength="115.377" x="21" y="670.6035">Discard clip (optional)</text><rect fill="#F1F1F1" height="35.0938" rx="12.5" ry="12.5" style="stroke:#181818;stroke-width:0.5;" width="267.4648" x="174.8496" y="648.1465"/><text fill="#000000" font-family="sans-serif" font-size="12" lengthAdjust="spacing" textLength="247.4648" x="184.8496" y="670.6035">Replay clip at selected slower speed (optional)</text><rect fill="#F1F1F1" height="35.0938" rx="12.5" ry="12.5" style="stroke:#181818;stroke-width:0.5;" width="139.4023" x="238.8809" y="703.2402"/><text fill="#000000" font-family="sans-serif" font-size="12" lengthAdjust="spacing" textLength="119.4023" x="248.8809" y="725.6973">End / cancel (optional)</text><polygon fill="#F1F1F1" points="193.6353,744.334,205.6353,756.334,193.6353,768.334,181.6353,756.334,193.6353,744.334" style="stroke:#181818;stroke-width:0.5;"/><polygon fill="#F1F1F1" points="73.0166,510.1348,314.2539,510.1348,326.2539,522.1348,314.2539,534.1348,73.0166,534.1348,61.0166,522.1348,73.0166,510.1348" style="stroke:#181818;stroke-width:0.5;"/><text fill="#000000" font-family="sans-serif" font-size="11" lengthAdjust="spacing" textLength="17.1177" x="197.6353" y="545.5537">yes</text><text fill="#000000" font-family="sans-serif" font-size="11" lengthAdjust="spacing" textLength="241.2373" x="73.0166" y="526.6357">Optional replay enabled + Heart capture request?</text><polygon fill="#F1F1F1" points="193.6353,788.334,205.6353,800.334,193.6353,812.334,181.6353,800.334,193.6353,788.334" style="stroke:#181818;stroke-width:0.5;"/><rect fill="#F1F1F1" height="35.0938" rx="12.5" ry="12.5" style="stroke:#181818;stroke-width:0.5;" width="103.3848" x="141.9429" y="832.334"/><text fill="#000000" font-family="sans-serif" font-size="12" lengthAdjust="spacing" textLength="83.3848" x="151.9429" y="854.791">Update settings</text><polygon fill="#F1F1F1" points="193.6353,236.8535,205.6353,248.8535,193.6353,260.8535,181.6353,248.8535,193.6353,236.8535" style="stroke:#181818;stroke-width:0.5;"/><polygon fill="#F1F1F1" points="164.2822,887.4277,222.9883,887.4277,234.9883,899.4277,222.9883,911.4277,164.2822,911.4277,152.2822,899.4277,164.2822,887.4277" style="stroke:#181818;stroke-width:0.5;"/><text fill="#000000" font-family="sans-serif" font-size="11" lengthAdjust="spacing" textLength="17.1177" x="197.6353" y="922.8467">yes</text><text fill="#000000" font-family="sans-serif" font-size="11" lengthAdjust="spacing" textLength="58.7061" x="164.2822" y="903.9287">Stop / fault?</text><text fill="#000000" font-family="sans-serif" font-size="11" lengthAdjust="spacing" textLength="12.2354" x="234.9883" y="897.0107">no</text><rect fill="#F1F1F1" height="35.0938" rx="12.5" ry="12.5" style="stroke:#181818;stroke-width:0.5;" width="46.6777" x="170.2964" y="944.3467"/><text fill="#000000" font-family="sans-serif" font-size="12" lengthAdjust="spacing" textLength="26.6777" x="180.2964" y="966.8037">Mute</text><rect fill="#F1F1F1" height="35.0938" rx="12.5" ry="12.5" style="stroke:#181818;stroke-width:0.5;" width="76.0273" x="155.6216" y="999.4404"/><text fill="#000000" font-family="sans-serif" font-size="12" lengthAdjust="spacing" textLength="56.0273" x="165.6216" y="1021.8975">Idle / Fault</text><ellipse cx="193.6353" cy="1065.5342" fill="none" rx="11" ry="11" style="stroke:#222222;stroke-width:1;"/><ellipse cx="193.6353" cy="1065.5342" fill="#222222" rx="6" ry="6" style="stroke:#222222;stroke-width:1;"/><line style="stroke:#181818;stroke-width:1;" x1="193.6353" x2="193.6353" y1="106.666" y2="126.666"/><polygon fill="#181818" points="189.6353,116.666,193.6353,126.666,197.6353,116.666,193.6353,120.666" style="stroke:#181818;stroke-width:1;"/><line style="stroke:#181818;stroke-width:1;" x1="193.6353" x2="193.6353" y1="161.7598" y2="181.7598"/><polygon fill="#181818" points="189.6353,171.7598,193.6353,181.7598,197.6353,171.7598,193.6353,175.7598" style="stroke:#181818;stroke-width:1;"/><line style="stroke:#181818;stroke-width:1;" x1="110.0923" x2="100.0923" y1="292.8535" y2="292.8535"/><line style="stroke:#181818;stroke-width:1;" x1="100.0923" x2="100.0923" y1="292.8535" y2="314.8535"/><polygon fill="#181818" points="96.0923,304.8535,100.0923,314.8535,104.0923,304.8535,100.0923,308.8535" style="stroke:#181818;stroke-width:1;"/><line style="stroke:#181818;stroke-width:1;" x1="277.1782" x2="287.1782" y1="292.8535" y2="292.8535"/><line style="stroke:#181818;stroke-width:1;" x1="287.1782" x2="287.1782" y1="292.8535" y2="314.8535"/><polygon fill="#181818" points="283.1782,304.8535,287.1782,314.8535,291.1782,304.8535,287.1782,308.8535" style="stroke:#181818;stroke-width:1;"/><line style="stroke:#181818;stroke-width:1;" x1="100.0923" x2="100.0923" y1="349.9473" y2="367.9473"/><line style="stroke:#181818;stroke-width:1;" x1="100.0923" x2="181.6353" y1="367.9473" y2="367.9473"/><polygon fill="#181818" points="171.6353,363.9473,181.6353,367.9473,171.6353,371.9473,175.6353,367.9473" style="stroke:#181818;stroke-width:1;"/><line style="stroke:#181818;stroke-width:1;" x1="287.1782" x2="287.1782" y1="349.9473" y2="367.9473"/><line style="stroke:#181818;stroke-width:1;" x1="287.1782" x2="205.6353" y1="367.9473" y2="367.9473"/><polygon fill="#181818" points="215.6353,363.9473,205.6353,367.9473,215.6353,371.9473,211.6353,367.9473" style="stroke:#181818;stroke-width:1;"/><line style="stroke:#181818;stroke-width:1;" x1="193.6353" x2="193.6353" y1="379.9473" y2="399.9473"/><polygon fill="#181818" points="189.6353,389.9473,193.6353,399.9473,197.6353,389.9473,193.6353,393.9473" style="stroke:#181818;stroke-width:1;"/><line style="stroke:#181818;stroke-width:1;" x1="193.6353" x2="193.6353" y1="435.041" y2="455.041"/><polygon fill="#181818" points="189.6353,445.041,193.6353,455.041,197.6353,445.041,193.6353,449.041" style="stroke:#181818;stroke-width:1;"/><line style="stroke:#181818;stroke-width:1;" x1="308.582" x2="308.582" y1="683.2402" y2="703.2402"/><polygon fill="#181818" points="304.582,693.2402,308.582,703.2402,312.582,693.2402,308.582,697.2402" style="stroke:#181818;stroke-width:1;"/><line style="stroke:#181818;stroke-width:1;" x1="88.6885" x2="78.6885" y1="626.1465" y2="626.1465"/><line style="stroke:#181818;stroke-width:1;" x1="78.6885" x2="78.6885" y1="626.1465" y2="648.1465"/><polygon fill="#181818" points="74.6885,638.1465,78.6885,648.1465,82.6885,638.1465,78.6885,642.1465" style="stroke:#181818;stroke-width:1;"/><line style="stroke:#181818;stroke-width:1;" x1="298.582" x2="308.582" y1="626.1465" y2="626.1465"/><line style="stroke:#181818;stroke-width:1;" x1="308.582" x2="308.582" y1="626.1465" y2="648.1465"/><polygon fill="#181818" points="304.582,638.1465,308.582,648.1465,312.582,638.1465,308.582,642.1465" style="stroke:#181818;stroke-width:1;"/><line style="stroke:#181818;stroke-width:1;" x1="78.6885" x2="78.6885" y1="683.2402" y2="756.334"/><line style="stroke:#181818;stroke-width:1;" x1="78.6885" x2="181.6353" y1="756.334" y2="756.334"/><polygon fill="#181818" points="171.6353,752.334,181.6353,756.334,171.6353,760.334,175.6353,756.334" style="stroke:#181818;stroke-width:1;"/><line style="stroke:#181818;stroke-width:1;" x1="308.582" x2="308.582" y1="738.334" y2="756.334"/><line style="stroke:#181818;stroke-width:1;" x1="308.582" x2="205.6353" y1="756.334" y2="756.334"/><polygon fill="#181818" points="215.6353,752.334,205.6353,756.334,215.6353,760.334,211.6353,756.334" style="stroke:#181818;stroke-width:1;"/><line style="stroke:#181818;stroke-width:1;" x1="193.6353" x2="193.6353" y1="594.1465" y2="614.1465"/><polygon fill="#181818" points="189.6353,604.1465,193.6353,614.1465,197.6353,604.1465,193.6353,608.1465" style="stroke:#181818;stroke-width:1;"/><line style="stroke:#181818;stroke-width:1;" x1="193.6353" x2="193.6353" y1="534.1348" y2="559.0527"/><polygon fill="#181818" points="189.6353,549.0527,193.6353,559.0527,197.6353,549.0527,193.6353,553.0527" style="stroke:#181818;stroke-width:1;"/><line style="stroke:#181818;stroke-width:1;" x1="326.2539" x2="456.3145" y1="522.1348" y2="522.1348"/><polygon fill="#181818" points="452.3145,653.6934,456.3145,663.6934,460.3145,653.6934,456.3145,657.6934" style="stroke:#181818;stroke-width:1;"/><line style="stroke:#181818;stroke-width:1;" x1="456.3145" x2="456.3145" y1="522.1348" y2="800.334"/><line style="stroke:#181818;stroke-width:1;" x1="456.3145" x2="205.6353" y1="800.334" y2="800.334"/><polygon fill="#181818" points="215.6353,796.334,205.6353,800.334,215.6353,804.334,211.6353,800.334" style="stroke:#181818;stroke-width:1;"/><line style="stroke:#181818;stroke-width:1;" x1="193.6353" x2="193.6353" y1="768.334" y2="788.334"/><polygon fill="#181818" points="189.6353,778.334,193.6353,788.334,197.6353,778.334,193.6353,782.334" style="stroke:#181818;stroke-width:1;"/><line style="stroke:#181818;stroke-width:1;" x1="193.6353" x2="193.6353" y1="490.1348" y2="510.1348"/><polygon fill="#181818" points="189.6353,500.1348,193.6353,510.1348,197.6353,500.1348,193.6353,504.1348" style="stroke:#181818;stroke-width:1;"/><line style="stroke:#181818;stroke-width:1;" x1="193.6353" x2="193.6353" y1="812.334" y2="832.334"/><polygon fill="#181818" points="189.6353,822.334,193.6353,832.334,197.6353,822.334,193.6353,826.334" style="stroke:#181818;stroke-width:1;"/><line style="stroke:#181818;stroke-width:1;" x1="193.6353" x2="193.6353" y1="260.8535" y2="280.8535"/><polygon fill="#181818" points="189.6353,270.8535,193.6353,280.8535,197.6353,270.8535,193.6353,274.8535" style="stroke:#181818;stroke-width:1;"/><line style="stroke:#181818;stroke-width:1;" x1="234.9883" x2="474.3145" y1="899.4277" y2="899.4277"/><polygon fill="#181818" points="470.3145,586.5996,474.3145,576.5996,478.3145,586.5996,474.3145,582.5996" style="stroke:#181818;stroke-width:1;"/><line style="stroke:#181818;stroke-width:1;" x1="474.3145" x2="474.3145" y1="248.8535" y2="899.4277"/><line style="stroke:#181818;stroke-width:1;" x1="474.3145" x2="205.6353" y1="248.8535" y2="248.8535"/><polygon fill="#181818" points="215.6353,244.8535,205.6353,248.8535,215.6353,252.8535,211.6353,248.8535" style="stroke:#181818;stroke-width:1;"/><line style="stroke:#181818;stroke-width:1;" x1="193.6353" x2="193.6353" y1="867.4277" y2="887.4277"/><polygon fill="#181818" points="189.6353,877.4277,193.6353,887.4277,197.6353,877.4277,193.6353,881.4277" style="stroke:#181818;stroke-width:1;"/><line style="stroke:#181818;stroke-width:1;" x1="193.6353" x2="193.6353" y1="216.8535" y2="236.8535"/><polygon fill="#181818" points="189.6353,226.8535,193.6353,236.8535,197.6353,226.8535,193.6353,230.8535" style="stroke:#181818;stroke-width:1;"/><line style="stroke:#181818;stroke-width:1;" x1="193.6353" x2="193.6353" y1="911.4277" y2="944.3467"/><polygon fill="#181818" points="189.6353,934.3467,193.6353,944.3467,197.6353,934.3467,193.6353,938.3467" style="stroke:#181818;stroke-width:1;"/><line style="stroke:#181818;stroke-width:1;" x1="193.6353" x2="193.6353" y1="979.4404" y2="999.4404"/><polygon fill="#181818" points="189.6353,989.4404,193.6353,999.4404,197.6353,989.4404,193.6353,993.4404" style="stroke:#181818;stroke-width:1;"/><line style="stroke:#181818;stroke-width:1;" x1="193.6353" x2="193.6353" y1="1034.5342" y2="1054.5342"/><polygon fill="#181818" points="189.6353,1044.5342,193.6353,1054.5342,197.6353,1044.5342,193.6353,1048.5342" style="stroke:#181818;stroke-width:1;"/><g class="legend" data-source-line="29"><rect fill="#DDDDDD" height="45.2188" rx="7.5" ry="7.5" style="stroke:#000000;stroke-width:1;" width="378.0811" x="59.6167" y="1087.5342"/><text fill="#000000" font-family="sans-serif" font-size="14" lengthAdjust="spacing" textLength="191.0508" x="64.6167" y="1107.0674">Grey / optional = beyond MVP.</text><text fill="#000000" font-family="sans-serif" font-size="14" lengthAdjust="spacing" textLength="368.0811" x="64.6167" y="1124.6768">Display, touch, SD and capture / slower replay are optional.</text></g><?plantuml-src PL9BRzim3BxhLn3OnS6AzcvZ6BRriG7jLYJOxenCnq9bIPEe1Vxte-GuQpFVv8_y7YJJYt418qwGHkpzqRW336WJgNH6UXemMxxtZh_ZHB13btOKpQ3Oi2LuD8d9IQTAZ95L-wstrAbsLrvWLxHJaG8XAp03D8zPb2RV4_W8Mpn28akQgV-u0Hx9GJDJsYY0zlCSC2KOZ6MAdG8ITz0uNy5F8TZvtFkgoFNYRyN_U9idiGJjiyKPCFV6TukF7u6DTsX1p1MC7EwjCBs7hrJiQmoS8mdyErFYItVlxkhNRadxMBgMkD3u4-z6TAhG5tIQRA6-WUHpr3LvdO0UqHt-JtuclpL9ex1hQy85ypAC2WpPsZTjsoLH1P7_3IbPVwG8AP0ytjATU-zSyQchvql9PRJhX7-67fc4dLcMdDOjmt4qSXlDZdqGfdf14j2akZfmdayvswVCvLhAqKZXVIdiv99yK9OEeW9xp-mdKNw8D4l9wWO-m9vcBnLFlvwl1PSvbSHNm3xhyGfsju22hYkyMPEVLetoR-MwLgAqwFq5?></g></svg>