<?xml version="1.0" encoding="us-ascii" standalone="no"?><svg xmlns="http://www.w3.org/2000/svg" xmlns:xlink="http://www.w3.org/1999/xlink" contentStyleType="text/css" height="726px" preserveAspectRatio="none" style="width:1049px;height:726px;background:#FFFFFF;" version="1.1" viewBox="0 0 1049 726" width="1049px" zoomAndPan="magnify"><metadata>Updated by GPT-6.1-Sol on behalf of Nico running in T3 Code through Codex.</metadata><defs/><g><text fill="#000000" font-family="sans-serif" font-size="14" font-weight="bold" lengthAdjust="spacing" textLength="57" x="274" y="24.5332">Threads</text><g id="elem_irq"><rect fill="#F0E5CF" height="55.2188" rx="2.5" ry="2.5" style="stroke:#181818;stroke-width:0.5;" width="89" x="310.8941" y="50.6094"/><text fill="#000000" font-family="sans-serif" font-size="14" font-style="italic" lengthAdjust="spacing" textLength="69" x="320.8941" y="75.1426">&#171;interrupt&#187;</text><text fill="#000000" font-family="sans-serif" font-size="14" lengthAdjust="spacing" textLength="60" x="325.3941" y="92.752">GPIO ISR</text></g><g id="elem_adapters"><rect fill="#F1F1F1" height="37.6094" rx="2.5" ry="2.5" style="stroke:#181818;stroke-width:0.5;" width="207" x="417.8941" y="59.1094"/><text fill="#000000" font-family="sans-serif" font-size="14" lengthAdjust="spacing" textLength="187" x="427.8941" y="83.6426">Touch / GPIO / ADC adapters</text></g><g id="elem_inp"><rect fill="#DCEBFA" height="72.8281" rx="2.5" ry="2.5" style="stroke:#345E87;stroke-width:0.5;" width="180" x="348.3941" y="159.6094"/><text fill="#000000" font-family="sans-serif" font-size="14" font-style="italic" lengthAdjust="spacing" textLength="57" x="409.8941" y="184.1426">&#171;thread&#187;</text><text fill="#000000" font-family="sans-serif" font-size="14" lengthAdjust="spacing" textLength="31" x="358.3941" y="201.752">Input</text><text fill="#000000" font-family="sans-serif" font-size="14" lengthAdjust="spacing" textLength="160" x="358.3941" y="219.3613">Buttons / switches / touch</text></g><g id="elem_ctl"><rect fill="#DCEBFA" height="55.2188" rx="2.5" ry="2.5" style="stroke:#345E87;stroke-width:0.5;" width="121" x="377.8941" y="286.6094"/><text fill="#000000" font-family="sans-serif" font-size="14" font-style="italic" lengthAdjust="spacing" textLength="57" x="409.8941" y="311.1426">&#171;thread&#187;</text><text fill="#000000" font-family="sans-serif" font-size="14" lengthAdjust="spacing" textLength="101" x="387.8941" y="328.752">Main / controller</text></g><g id="elem_audio"><rect fill="#DCEBFA" height="72.8281" rx="2.5" ry="2.5" style="stroke:#345E87;stroke-width:0.5;" width="163" x="385.8941" y="504.6094"/><text fill="#000000" font-family="sans-serif" font-size="14" font-style="italic" lengthAdjust="spacing" textLength="57" x="438.8941" y="529.1426">&#171;thread&#187;</text><text fill="#000000" font-family="sans-serif" font-size="14" lengthAdjust="spacing" textLength="36" x="395.8941" y="546.752">Audio</text><text fill="#000000" font-family="sans-serif" font-size="14" lengthAdjust="spacing" textLength="143" x="395.8941" y="564.3613">Filter / capture / replay</text></g><g id="elem_bpm"><rect fill="#DCEBFA" height="72.8281" rx="2.5" ry="2.5" style="stroke:#345E87;stroke-width:0.5;" width="157" x="658.8941" y="647.6094"/><text fill="#000000" font-family="sans-serif" font-size="14" font-style="italic" lengthAdjust="spacing" textLength="57" x="708.8941" y="672.1426">&#171;thread&#187;</text><text fill="#000000" font-family="sans-serif" font-size="14" lengthAdjust="spacing" textLength="29" x="668.8941" y="689.752">BPM</text><text fill="#000000" font-family="sans-serif" font-size="14" lengthAdjust="spacing" textLength="137" x="668.8941" y="707.3613">Window / aggregation</text></g><g id="elem_storage"><rect fill="#DCEBFA" height="55.2188" rx="2.5" ry="2.5" style="stroke:#345E87;stroke-width:0.5;" width="77" x="215.8941" y="395.6094"/><text fill="#000000" font-family="sans-serif" font-size="14" font-style="italic" lengthAdjust="spacing" textLength="57" x="225.8941" y="420.1426">&#171;thread&#187;</text><text fill="#000000" font-family="sans-serif" font-size="14" lengthAdjust="spacing" textLength="50" x="229.3941" y="437.752">Storage</text></g><g id="elem_display"><rect fill="#DCEBFA" height="55.2188" rx="2.5" ry="2.5" style="stroke:#345E87;stroke-width:0.5;" width="77" x="310.8941" y="395.6094"/><text fill="#000000" font-family="sans-serif" font-size="14" font-style="italic" lengthAdjust="spacing" textLength="57" x="320.8941" y="420.1426">&#171;thread&#187;</text><text fill="#000000" font-family="sans-serif" font-size="14" lengthAdjust="spacing" textLength="46" x="326.3941" y="437.752">Display</text></g><g id="elem_net"><rect fill="#DCEBFA" height="55.2188" rx="2.5" ry="2.5" style="stroke:#345E87;stroke-width:0.5;" width="77" x="476.8941" y="395.6094"/><text fill="#000000" font-family="sans-serif" font-size="14" font-style="italic" lengthAdjust="spacing" textLength="57" x="486.8941" y="420.1426">&#171;thread&#187;</text><text fill="#000000" font-family="sans-serif" font-size="14" lengthAdjust="spacing" textLength="50" x="490.3941" y="437.752">Network</text></g><polygon fill="#181818" points="388.3002,159.4353,384.6999,150.2681,384.7398,155.9248,379.0831,155.9647,388.3002,159.4353" style="stroke:#181818;stroke-width:1.0;"/><path d="M359.4105,105.845 C362.0597,117.5182 366.3878,130.9453 373.3941,141.6094 C377.5672,147.9613 378.4545,149.7275 384.0277,155.2227 " fill="none" style="stroke:#181818;stroke-width:1.0;"/><text fill="#000000" font-family="sans-serif" font-size="13" lengthAdjust="spacing" textLength="124" x="374.3941" y="138.1045">wake-up &#183; semaphore</text><polygon fill="#181818" points="484.4372,159.5158,493.6089,155.9271,487.9521,155.9599,487.9194,150.3031,484.4372,159.5158" style="stroke:#181818;stroke-width:1.0;"/><path d="M517.6354,97.2032 C514.3128,110.3285 508.5448,128.0785 499.3941,141.6094 C495.1328,147.9104 494.1731,149.6664 488.6551,155.2487 " fill="none" style="stroke:#181818;stroke-width:1.0;"/><text fill="#000000" font-family="sans-serif" font-size="13" lengthAdjust="spacing" textLength="159" x="510.3941" y="138.1045">input samples &#183; driver reads</text><polygon fill="#181818" points="438.3941,286.5035,442.3941,277.5035,438.3941,281.5035,434.3941,277.5035,438.3941,286.5035" style="stroke:#181818;stroke-width:1.0;"/><path d="M438.3941,232.8597 C438.3941,250.1678 438.3941,264.5916 438.3941,280.5035 " fill="none" style="stroke:#181818;stroke-width:1.0;"/><text fill="#000000" font-family="sans-serif" font-size="13" lengthAdjust="spacing" textLength="138" x="439.3941" y="265.1045">control events &#183; k_msgq</text><polygon fill="#181818" points="385.7485,535.6141,377.057,530.982,380.7613,535.2573,376.486,538.9616,385.7485,535.6141" style="stroke:#181818;stroke-width:1.0;"/><path d="M377.7363,314.8733 C240.9597,316.3839 -72.2827,332.4476 24.3941,450.6094 C69.1734,505.3403 264.5309,526.9412 379.7638,535.1859 " fill="none" style="stroke:#181818;stroke-width:1.0;"/><text fill="#000000" font-family="sans-serif" font-size="13" lengthAdjust="spacing" textLength="180" x="25.3941" y="428.6045">settings / commands &#183; k_msgq</text><polygon fill="#181818" points="669.2834,647.5405,663.1574,639.8287,664.8514,645.226,659.4542,646.92,669.2834,647.5405" style="stroke:#181818;stroke-width:1.0;"/><path d="M535.5265,577.6896 C576.4564,599.0642 623.0389,623.3906 663.965,644.7631 " fill="none" style="stroke:#181818;stroke-width:1.0;"/><text fill="#000000" font-family="sans-serif" font-size="13" lengthAdjust="spacing" textLength="155" x="665.8941" y="610.1045">original-rate sample blocks</text><text fill="#000000" font-family="sans-serif" font-size="13" lengthAdjust="spacing" textLength="214" x="636.3941" y="626.4561">before filter / gain &#183; handles / k_msgq</text><polygon fill="#181818" points="499.0303,316.3791,507.89,320.681,504.0275,316.5481,508.1603,312.6856,499.0303,316.3791" style="stroke:#181818;stroke-width:1.0;"/><path d="M816.0575,659.9942 C830.9467,652.4299 845.0696,642.5219 855.3941,629.6094 C928.4913,538.1889 930.7225,443.6532 892.3941,395.6094 C844.2823,335.3024 617.2426,320.3763 505.0269,316.5819 " fill="none" style="stroke:#181818;stroke-width:1.0;"/><text fill="#000000" font-family="sans-serif" font-size="13" lengthAdjust="spacing" textLength="123" x="918.3941" y="483.1045">BPM result &#183; k_msgq</text><polygon fill="#181818" points="498.9819,316.0633,507.8346,320.3796,503.9788,316.2404,508.1179,312.3846,498.9819,316.0633" style="stroke:#181818;stroke-width:1.0;"/><path d="M549.2598,516.8929 C642.1482,486.5628 773.54,429.0553 714.3941,359.6094 C687.2905,327.7858 577.7033,318.8534 504.9781,316.2758 " fill="none" style="stroke:#181818;stroke-width:1.0;"/><text fill="#000000" font-family="sans-serif" font-size="13" lengthAdjust="spacing" textLength="157" x="730.3941" y="428.6045">completion / fault &#183; k_msgq</text><polygon fill="#181818" points="215.7848,402.3405,209.4232,394.8219,211.2833,400.1641,205.941,402.0243,215.7848,402.3405" style="stroke:#181818;stroke-width:1.0;"/><path d="M377.7913,315.8211 C303.583,318.127 184.2874,326.9693 156.3941,359.6094 C151.1967,365.6911 151.909,370.9848 156.3941,377.6094 C168.4704,395.4465 181.7438,386.7851 201.3941,395.6094 C206.0864,397.7165 205.5657,397.3999 210.383,399.7289 " fill="none" style="stroke:#181818;stroke-width:1.0;"/><text fill="#000000" font-family="sans-serif" font-size="13" lengthAdjust="spacing" textLength="121" x="157.3941" y="374.1045">file request &#183; k_msgq</text><polygon fill="#181818" points="400.6,504.4681,394.5617,496.6874,396.1944,502.1035,390.7783,503.7362,400.6,504.4681" style="stroke:#181818;stroke-width:1.0;"/><path d="M293.0903,446.0039 C295.897,447.5685 298.6871,449.1167 301.3941,450.6094 C333.9358,468.5539 364.9658,485.3419 395.3133,501.6306 " fill="none" style="stroke:#181818;stroke-width:1.0;"/><text fill="#000000" font-family="sans-serif" font-size="13" lengthAdjust="spacing" textLength="201" x="366.3941" y="483.1045">file audio &#183; block handles / k_msgq</text><polygon fill="#181818" points="310.812,399.0684,305.5833,390.7222,306.6654,396.2745,301.113,397.3567,310.812,399.0684" style="stroke:#181818;stroke-width:1.0;"/><path d="M377.7173,325.2451 C340.4251,332.851 297.6875,344.5356 286.3941,359.6094 C281.5973,366.0118 282.7147,370.5057 286.3941,377.6094 C289.4427,383.4952 294.5792,388.131 305.8361,395.7158 " fill="none" style="stroke:#181818;stroke-width:1.0;"/><text fill="#000000" font-family="sans-serif" font-size="13" lengthAdjust="spacing" textLength="142" x="287.3941" y="374.1045">UI state &#183; snapshot copy</text><polygon fill="#181818" points="476.5107,408.7906,470.1829,401.2435,472.019,406.5941,466.6685,408.4303,476.5107,408.7906" style="stroke:#181818;stroke-width:1.0;"/><path d="M433.1929,341.9148 C432.2907,353.6015 433.2102,367.0199 439.3941,377.6094 C447.6441,391.7371 456.8846,399.1931 471.1207,406.1548 " fill="none" style="stroke:#181818;stroke-width:1.0;"/><text fill="#000000" font-family="sans-serif" font-size="13" lengthAdjust="spacing" textLength="123" x="440.3941" y="374.1045">BPM result &#183; k_msgq</text><polygon fill="#181818" points="498.9021,321.3742,506.7259,327.3565,503.7652,322.5363,508.5853,319.5756,498.9021,321.3742" style="stroke:#181818;stroke-width:1.0;"/><path d="M553.8941,396.0892 C565.4781,385.0307 573.073,371.8789 564.3941,359.6094 C549.3891,338.3968 529.232,328.6222 504.7378,322.7687 " fill="none" style="stroke:#181818;stroke-width:1.0;"/><text fill="#000000" font-family="sans-serif" font-size="13" lengthAdjust="spacing" textLength="140" x="569.3941" y="374.1045">send outcome &#183; k_msgq</text></g></svg>