<?plantuml 1.2026.2?><svg xmlns="http://www.w3.org/2000/svg" xmlns:xlink="http://www.w3.org/1999/xlink" contentStyleType="text/css" data-diagram-type="DESCRIPTION" height="853px" preserveAspectRatio="none" style="width:1119px;height:853px;background:#FFFFFF;" version="1.1" viewBox="0 0 1119 853" width="1119px" zoomAndPan="magnify"><title>Threads</title><defs/><g><g class="title" data-source-line="15"><text fill="#000000" font-family="sans-serif" font-size="14" font-weight="bold" lengthAdjust="spacing" textLength="54.4619" x="307.519" y="24.5332">Threads</text></g><!--entity irq--><g class="entity" data-qualified-name="irq" data-source-line="22" id="ent0002"><rect fill="#F0E5CF" height="55.2188" rx="2.5" ry="2.5" style="stroke:#181818;stroke-width:0.5;" width="88.9307" x="391.8345" y="50.6094"/><text fill="#000000" font-family="sans-serif" font-size="14" font-style="italic" lengthAdjust="spacing" textLength="66.9307" x="402.8345" y="75.1426">&#171;interrupt&#187;</text><text fill="#000000" font-family="sans-serif" font-size="14" lengthAdjust="spacing" textLength="62.2344" x="405.1826" y="92.752">GPIO ISR</text></g><!--entity adapters--><g class="entity" data-qualified-name="adapters" data-source-line="23" id="ent0003"><rect fill="#F1F1F1" height="55.2188" rx="2.5" ry="2.5" style="stroke:#181818;stroke-width:0.5;" width="172.5371" x="501.8345" y="50.6094"/><text fill="#000000" font-family="sans-serif" font-size="14" lengthAdjust="spacing" textLength="134.6064" x="511.8345" y="75.1426">GPIO / ADC adapters</text><text fill="#000000" font-family="sans-serif" font-size="14" lengthAdjust="spacing" textLength="152.5371" x="511.8345" y="92.752">Touch adapter (optional)</text></g><!--entity inp--><g class="entity" data-qualified-name="inp" data-source-line="24" id="ent0004"><rect fill="#DCEBFA" height="90.4375" rx="2.5" ry="2.5" style="stroke:#345E87;stroke-width:0.5;" width="132.8271" x="445.8345" y="161.6094"/><text fill="#000000" font-family="sans-serif" font-size="14" font-style="italic" lengthAdjust="spacing" textLength="55.2686" x="484.6138" y="186.1426">&#171;thread&#187;</text><text fill="#000000" font-family="sans-serif" font-size="14" lengthAdjust="spacing" textLength="31.1377" x="455.8345" y="203.752">Input</text><text fill="#000000" font-family="sans-serif" font-size="14" lengthAdjust="spacing" textLength="112.8271" x="455.8345" y="221.3613">Buttons / switches</text><text fill="#000000" font-family="sans-serif" font-size="14" lengthAdjust="spacing" textLength="101.165" x="455.8345" y="238.9707">Touch (optional)</text></g><!--entity ctl--><g class="entity" data-qualified-name="ctl" data-source-line="25" id="ent0005"><rect fill="#DCEBFA" height="55.2188" rx="2.5" ry="2.5" style="stroke:#345E87;stroke-width:0.5;" width="119.5928" x="452.3345" y="307.6094"/><text fill="#000000" font-family="sans-serif" font-size="14" font-style="italic" lengthAdjust="spacing" textLength="55.2686" x="484.4966" y="332.1426">&#171;thread&#187;</text><text fill="#000000" font-family="sans-serif" font-size="14" lengthAdjust="spacing" textLength="99.5928" x="462.3345" y="349.752">Main / controller</text></g><!--entity audio--><g class="entity" data-qualified-name="audio" data-source-line="26" id="ent0006"><rect fill="#DCEBFA" height="90.4375" rx="2.5" ry="2.5" style="stroke:#345E87;stroke-width:0.5;" width="213.7578" x="413.3345" y="547.6094"/><text fill="#000000" font-family="sans-serif" font-size="14" font-style="italic" lengthAdjust="spacing" textLength="55.2686" x="492.5791" y="572.1426">&#171;thread&#187;</text><text fill="#000000" font-family="sans-serif" font-size="14" lengthAdjust="spacing" textLength="35.8066" x="423.3345" y="589.752">Audio</text><text fill="#000000" font-family="sans-serif" font-size="14" lengthAdjust="spacing" textLength="31.1104" x="423.3345" y="607.3613">Filter</text><text fill="#000000" font-family="sans-serif" font-size="14" lengthAdjust="spacing" textLength="193.7578" x="423.3345" y="624.9707">Capture / slow replay (optional)</text></g><!--entity bpm--><g class="entity" data-qualified-name="bpm" data-source-line="27" id="ent0007"><rect fill="#DCEBFA" height="72.8281" rx="2.5" ry="2.5" style="stroke:#345E87;stroke-width:0.5;" width="155.4131" x="725.8345" y="709.6094"/><text fill="#000000" font-family="sans-serif" font-size="14" font-style="italic" lengthAdjust="spacing" textLength="55.2686" x="775.9067" y="734.1426">&#171;thread&#187;</text><text fill="#000000" font-family="sans-serif" font-size="14" lengthAdjust="spacing" textLength="30.3379" x="735.8345" y="751.752">BPM</text><text fill="#000000" font-family="sans-serif" font-size="14" lengthAdjust="spacing" textLength="135.4131" x="735.8345" y="769.3613">Window / aggregation</text></g><!--entity storage--><g class="entity" data-qualified-name="storage" data-source-line="28" id="ent0008"><rect fill="#EEEEEE" height="72.8281" rx="2.5" ry="2.5" style="stroke:#888888;stroke-width:0.5;" width="115.7305" x="216.3345" y="418.6094"/><text fill="#666666" font-family="sans-serif" font-size="14" font-style="italic" lengthAdjust="spacing" textLength="64.6133" x="241.8931" y="443.1426">&#171;optional&#187;</text><text fill="#666666" font-family="sans-serif" font-size="14" lengthAdjust="spacing" textLength="49.0342" x="226.3345" y="460.752">Storage</text><text fill="#666666" font-family="sans-serif" font-size="14" lengthAdjust="spacing" textLength="95.7305" x="226.3345" y="478.3613">Optional thread</text></g><!--entity display--><g class="entity" data-qualified-name="display" data-source-line="29" id="ent0009"><rect fill="#EEEEEE" height="72.8281" rx="2.5" ry="2.5" style="stroke:#888888;stroke-width:0.5;" width="115.7305" x="350.3345" y="418.6094"/><text fill="#666666" font-family="sans-serif" font-size="14" font-style="italic" lengthAdjust="spacing" textLength="64.6133" x="375.8931" y="443.1426">&#171;optional&#187;</text><text fill="#666666" font-family="sans-serif" font-size="14" lengthAdjust="spacing" textLength="45.9033" x="360.3345" y="460.752">Display</text><text fill="#666666" font-family="sans-serif" font-size="14" lengthAdjust="spacing" textLength="95.7305" x="360.3345" y="478.3613">Optional thread</text></g><!--entity net--><g class="entity" data-qualified-name="net" data-source-line="30" id="ent0010"><rect fill="#DCEBFA" height="55.2188" rx="2.5" ry="2.5" style="stroke:#345E87;stroke-width:0.5;" width="77.2686" x="547.8345" y="427.6094"/><text fill="#000000" font-family="sans-serif" font-size="14" font-style="italic" lengthAdjust="spacing" textLength="55.2686" x="558.8345" y="452.1426">&#171;thread&#187;</text><text fill="#000000" font-family="sans-serif" font-size="14" lengthAdjust="spacing" textLength="51.3447" x="560.7964" y="469.752">Network</text></g><g class="link" data-entity-1="ent0002" data-entity-2="ent0004" data-link-type="dependency" id="lnk11"><polygon fill="#181818" points="449.1682,161.4766,446.3874,152.0285,445.93,157.6668,440.2917,157.2095,449.1682,161.4766" style="stroke:#181818;stroke-width:1;"/><path d="M431.8358,105.69 C430.9904,117.8048 431.7585,131.9998 437.3345,143.6094 C440.4064,150.0054 440.6033,151.3997 445.2824,156.9049" fill="none" style="stroke:#181818;stroke-width:1;"/><text fill="#000000" font-family="sans-serif" font-size="13" lengthAdjust="spacing" textLength="125.728" x="439.3345" y="139.1045">wake-up &#183; semaphore</text></g><g class="link" data-entity-1="ent0003" data-entity-2="ent0004" data-link-type="dependency" id="lnk12"><polygon fill="#181818" points="554.3087,161.442,562.9515,156.7195,557.3445,157.4692,556.5948,151.8622,554.3087,161.442" style="stroke:#181818;stroke-width:1;"/><path d="M581.7513,105.8415 C578.166,117.8532 573.067,131.9221 566.3345,143.6094 C562.8432,149.6701 562.353,150.9146 557.9517,156.6746" fill="none" style="stroke:#181818;stroke-width:1;"/><text fill="#000000" font-family="sans-serif" font-size="13" lengthAdjust="spacing" textLength="160.3989" x="577.3345" y="139.1045">input samples &#183; driver reads</text></g><g class="link" data-entity-1="ent0004" data-entity-2="ent0005" data-link-type="dependency" id="lnk13"><polygon fill="#181818" points="512.3345,307.4076,516.3345,298.4076,512.3345,302.4076,508.3345,298.4076,512.3345,307.4076" style="stroke:#181818;stroke-width:1;"/><path d="M512.3345,251.8529 C512.3345,270.3774 512.3345,285.2997 512.3345,301.4076" fill="none" style="stroke:#181818;stroke-width:1;"/><text fill="#000000" font-family="sans-serif" font-size="13" lengthAdjust="spacing" textLength="138.0044" x="514.3345" y="285.1045">control events &#183; k_msgq</text></g><g class="link" data-entity-1="ent0005" data-entity-2="ent0006" data-link-type="dependency" id="lnk14"><polygon fill="#181818" points="413.2655,585.3121,404.6038,580.6243,408.2806,584.9233,403.9817,588.6001,413.2655,585.3121" style="stroke:#181818;stroke-width:1;"/><path d="M452.2638,335.4459 C298.684,335.7441 -88.3054,350.1582 27.3345,491.6094 C75.1138,550.0532 277.1993,574.6991 407.2836,584.8455" fill="none" style="stroke:#181818;stroke-width:1;"/><text fill="#000000" font-family="sans-serif" font-size="13" lengthAdjust="spacing" textLength="176.2871" x="29.3345" y="460.6045">settings / commands &#183; k_msgq</text></g><g class="link" data-entity-1="ent0006" data-entity-2="ent0007" data-link-type="dependency" id="lnk15"><polygon fill="#181818" points="736.6027,709.3855,730.556,701.6113,732.1946,707.0257,726.7803,708.6643,736.6027,709.3855" style="stroke:#181818;stroke-width:1;"/><path d="M602.5699,637.633 C645.1642,660.4352 691.2134,685.087 731.313,706.5537" fill="none" style="stroke:#181818;stroke-width:1;"/><text fill="#000000" font-family="sans-serif" font-size="13" lengthAdjust="spacing" textLength="154.6226" x="727.9685" y="671.1045">original-rate sample blocks</text><text fill="#000000" font-family="sans-serif" font-size="13" lengthAdjust="spacing" textLength="213.8906" x="698.3345" y="687.4561">before filter / gain &#183; handles / k_msgq</text></g><g class="link" data-entity-1="ent0007" data-entity-2="ent0005" data-link-type="dependency" id="lnk16"><polygon fill="#181818" points="572.4157,337.5505,581.2628,341.8782,577.4124,337.734,581.5565,333.8836,572.4157,337.5505" style="stroke:#181818;stroke-width:1;"/><path d="M880.9819,720.1014 C894.6408,712.7489 907.583,703.4042 917.3345,691.6094 C973.9165,623.1709 1015.2323,478.0362 968.3345,418.6094 C920.1769,357.5862 690.8712,341.9015 578.4117,337.7708" fill="none" style="stroke:#181818;stroke-width:1;"/><text fill="#000000" font-family="sans-serif" font-size="13" lengthAdjust="spacing" textLength="120.6436" x="990.3345" y="525.1045">BPM result &#183; k_msgq</text></g><g class="link" data-entity-1="ent0006" data-entity-2="ent0005" data-link-type="dependency" id="lnk17"><polygon fill="#181818" points="572.6059,337.0521,581.4595,341.3666,577.6028,337.2282,581.7412,333.3716,572.6059,337.0521" style="stroke:#181818;stroke-width:1;"/><path d="M627.359,556.6968 C726.693,518.7391 850.5364,453.6435 788.3345,380.6094 C761.1916,348.7397 651.308,339.8257 578.6022,337.2635" fill="none" style="stroke:#181818;stroke-width:1;"/><text fill="#000000" font-family="sans-serif" font-size="13" lengthAdjust="spacing" textLength="155.3462" x="807.3345" y="460.6045">completion / fault &#183; k_msgq</text></g><g class="link" data-entity-1="ent0005" data-entity-2="ent0008" data-link-type="dependency" id="lnk18"><polygon fill="#181818" points="233.0064,418.2359,230.6959,408.6619,229.9605,414.2708,224.3516,413.5354,233.0064,418.2359" style="stroke:#181818;stroke-width:1;"/><path d="M452.2739,336.7264 C377.6176,338.9154 256.5603,347.6165 228.3345,380.6094 C218.5486,392.048 219.7719,401.0072 229.3513,413.4777" fill="none" style="stroke:#181818;stroke-width:1;"/><text fill="#000000" font-family="sans-serif" font-size="13" lengthAdjust="spacing" textLength="120.6626" x="230.3345" y="396.1045">file request &#183; k_msgq</text></g><g class="link" data-entity-1="ent0008" data-entity-2="ent0006" data-link-type="dependency" id="lnk19"><polygon fill="#181818" points="440.12,547.4262,434.1666,539.5803,435.7404,545.0138,430.3069,546.5876,440.12,547.4262" style="stroke:#181818;stroke-width:1;"/><path d="M332.633,488.221 C364.7434,505.9078 399.8225,525.2298 434.8645,544.5314" fill="none" style="stroke:#181818;stroke-width:1;"/><text fill="#000000" font-family="sans-serif" font-size="13" lengthAdjust="spacing" textLength="199.4434" x="407.3345" y="525.1045">file audio &#183; block handles / k_msgq</text></g><g class="link" data-entity-1="ent0005" data-entity-2="ent0009" data-link-type="dependency" id="lnk20"><polygon fill="#181818" points="365.8176,418.3355,363.4427,408.7773,362.7451,414.391,357.1314,413.6933,365.8176,418.3355" style="stroke:#181818;stroke-width:1;"/><path d="M452.0658,346.162 C414.6779,353.7657 371.6692,365.4805 360.3345,380.6094 C351.3791,392.5624 352.6273,401.4016 362.1306,413.602" fill="none" style="stroke:#181818;stroke-width:1;"/><text fill="#000000" font-family="sans-serif" font-size="13" lengthAdjust="spacing" textLength="140.1816" x="362.3345" y="396.1045">UI state &#183; snapshot copy</text></g><g class="link" data-entity-1="ent0005" data-entity-2="ent0010" data-link-type="dependency" id="lnk21"><polygon fill="#181818" points="547.6228,435.2784,542.2277,427.0386,543.421,432.5682,537.8914,433.7615,547.6228,435.2784" style="stroke:#181818;stroke-width:1;"/><path d="M507.5299,362.8424 C506.6201,374.9894 507.4223,389.1674 513.3345,400.6094 C520.8359,415.1271 529.2481,423.4266 542.5807,432.0261" fill="none" style="stroke:#181818;stroke-width:1;"/><text fill="#000000" font-family="sans-serif" font-size="13" lengthAdjust="spacing" textLength="120.6436" x="515.3345" y="396.1045">BPM result &#183; k_msgq</text></g><g class="link" data-entity-1="ent0010" data-entity-2="ent0005" data-link-type="dependency" id="lnk22"><polygon fill="#181818" points="572.3748,342.4984,580.1825,348.5017,577.2347,343.6736,582.0628,340.7258,572.3748,342.4984" style="stroke:#181818;stroke-width:1;"/><path d="M622.6044,427.5038 C637.1868,413.511 648.2575,396.0925 637.3345,380.6094 C622.4618,359.5277 602.5089,349.7852 578.2067,343.9087" fill="none" style="stroke:#181818;stroke-width:1;"/><text fill="#000000" font-family="sans-serif" font-size="13" lengthAdjust="spacing" textLength="138.7344" x="644.3345" y="396.1045">send outcome &#183; k_msgq</text></g><g class="legend" data-source-line="43"><rect fill="#DDDDDD" height="45.2188" rx="7.5" ry="7.5" style="stroke:#000000;stroke-width:1;" width="378.0811" x="145.7095" y="788.6094"/><text fill="#000000" font-family="sans-serif" font-size="14" lengthAdjust="spacing" textLength="191.0508" x="150.7095" y="808.1426">Grey / optional = beyond MVP.</text><text fill="#000000" font-family="sans-serif" font-size="14" lengthAdjust="spacing" textLength="368.0811" x="150.7095" y="825.752">Display, touch, SD and capture / slower replay are optional.</text></g><?plantuml-src nLLDRzim3BtxLt3TPGEQTi3MhGYw0irNaKFROEcsIu21iHb7Y2sfajmW6FQxTjyl6odNZTicm6xJpU7ZutiafRoo3lCIeS2DgGBuaW9gJFnAQOiEI_1BpCnQwHmMM7XgHL9JMgD91_YPG0_JLUvCfRE-AOmxEpCsAAEnE3-7ryDu66HSHcu7u3IU14P6XntXZ_4alrh5qGMrmFI_r7uqFWsRWi1HoZtBYtPlCbfWLGJXlCQIO8hQJycfHH9Ku9pRfIFCV1ACXM1WRa8mdAM4Yql_SvT3v16TW_wmDxfuvdCRVl_XP7ZwQGU3qe6SgsmGrEZTyAG_OhFRgWUNa_4DZATV3W0zA7S7Jt9U88_XOj07pD0oni_qhQdIPVCDRvhMlerq3QpDCjQs2ZFTgxWbsZEVNwkGBkcHwna7DmgsJjjCLwWqvwSy16UAWbp4fw7OWx-eCcLcUgGArZJJVTPMEH85XLdpc2rVaXSE96SFNszoDTFVbURxmoIOvuvobEIOERVbdhnfC7mfQQPl7af1ZOfflWv2UqlRoGFbHUVkvAmExas-fh0sRXMnca9Rdqo-qpcFxUx26bVKgIpy-GsUIhHBuoXffjd2AHacU2njGLxGcLFtl0VrzWj6i3AIRZCde7lM4i6h7wNFxn892wpkTPShXi0Fae-pBKlKMHjTemGl7Uw2SIfNxBJZCD2359WN9btnHirfmSfX4KVEVBci37CjcLGK7pUimhMLofDb2vvl-Cx2ZHyf9MrcclWSxF3KZBCh6kGjkQl8ju4DeDs02Aq_61Yzl5JSL6XcteMlOoudJP2fQRH-QGAhj9j7hCnyZpi9RRrvqXdm7mPxf1Qee5m2zNEM05mwsh2YPjdWCynfOnXnzMronF67PJtaDv1lzY5C1y0s87roy-AwH0l8lpLSHmc9OQdt5m00?></g></svg>